<svg width="48" height="48" viewBox="0 0 48 48" fill="none" xmlns="http://www.w3.org/2000/svg">
    <path opacity="0.4" d="M24.2414 25.56C24.1014 25.54 23.9214 25.54 23.7614 25.56C20.2414 25.44 17.4414 22.56 17.4414 19.02C17.4414 15.4 20.3614 12.46 24.0014 12.46C27.6214 12.46 30.5614 15.4 30.5614 19.02C30.5414 22.56 27.7614 25.44 24.2414 25.56Z" stroke="white" stroke-width="3.2" stroke-linecap="round" stroke-linejoin="round"/>
    <path opacity="0.34" d="M37.4796 38.7602C33.9196 42.0202 29.1996 44.0002 23.9996 44.0002C18.7995 44.0002 14.0795 42.0202 10.5195 38.7602C10.7195 36.8802 11.9195 35.0402 14.0595 33.6002C19.5395 29.9602 28.4996 29.9602 33.9396 33.6002C36.0796 35.0402 37.2796 36.8802 37.4796 38.7602Z" stroke="white" stroke-width="3.2" stroke-linecap="round" stroke-linejoin="round"/>
    <path d="M24 44C35.0456 44 44 35.0456 44 24C44 12.9543 35.0456 4 24 4C12.9543 4 4 12.9543 4 24C4 35.0456 12.9543 44 24 44Z" stroke="white" stroke-width="3.2" stroke-linecap="round" stroke-linejoin="round"/>
</svg>